<?xml version="1.0" encoding="UTF-8" ?>
<!DOCTYPE svg PUBLIC "-//W3C//DTD SVG 1.1//EN" "http://www.w3.org/Graphics/SVG/1.1/DTD/svg11.dtd">
<svg width="2736pt" height="3201pt" viewBox="0 0 2736 3201" version="1.1" xmlns="http://www.w3.org/2000/svg">
<g id="#2c358fff">
<path fill="#2c358f" opacity="1.00" d=" M 1978.29 0.00 L 1994.72 0.00 C 2002.14 0.70 2009.75 0.88 2016.94 3.00 C 2028.62 8.73 2041.17 15.59 2047.18 27.74 C 2050.94 34.99 2049.54 43.30 2049.10 51.08 C 2047.75 79.75 2051.80 108.54 2048.53 137.13 C 2046.20 146.13 2044.60 155.29 2043.22 164.48 C 2042.53 167.25 2041.88 170.02 2041.32 172.82 C 2023.27 168.73 2003.78 170.42 1987.31 179.12 C 1963.74 236.89 1925.85 288.00 1881.19 331.22 C 1876.30 336.44 1870.30 340.38 1864.66 344.71 C 1817.95 379.70 1772.10 415.85 1727.24 453.19 C 1722.24 457.49 1716.76 461.34 1712.66 466.57 C 1707.10 473.55 1704.07 482.25 1702.97 491.03 C 1700.49 510.67 1705.15 530.44 1702.70 550.08 C 1701.83 555.75 1701.02 561.77 1697.50 566.49 C 1687.43 581.35 1676.12 596.11 1660.55 605.55 C 1614.83 636.05 1571.51 671.44 1520.08 692.16 C 1513.61 694.10 1508.54 698.77 1502.37 701.35 C 1485.27 709.50 1465.40 712.18 1450.43 724.47 C 1445.91 728.53 1441.19 733.25 1439.73 739.34 C 1437.40 751.19 1437.90 763.45 1439.83 775.32 C 1434.82 774.10 1429.92 772.45 1424.87 771.48 C 1418.72 773.08 1412.24 774.14 1405.97 772.57 C 1397.94 770.61 1391.13 765.31 1385.97 759.01 C 1378.94 750.46 1373.91 740.49 1369.58 730.36 C 1368.61 727.99 1367.33 725.67 1367.04 723.10 C 1365.25 702.02 1366.66 680.76 1370.13 659.93 C 1376.50 621.13 1390.03 584.06 1402.78 547.03 C 1405.92 530.73 1411.75 515.03 1419.46 500.35 C 1429.71 480.42 1442.35 461.85 1453.29 442.31 C 1460.28 430.08 1465.57 416.94 1473.09 405.00 C 1483.97 387.12 1497.15 370.72 1511.37 355.39 C 1515.69 350.41 1521.03 346.26 1524.35 340.46 C 1540.46 315.69 1557.70 291.51 1577.77 269.75 C 1582.00 265.30 1586.01 260.59 1590.88 256.80 C 1606.66 244.21 1617.42 226.74 1631.71 212.65 C 1691.18 156.25 1755.01 104.09 1824.60 60.61 C 1839.92 48.67 1859.75 45.34 1875.91 34.90 C 1906.41 15.02 1941.79 2.00 1978.29 0.00 M 1749.27 209.23 C 1747.96 210.92 1746.22 212.58 1746.10 214.84 C 1745.34 221.68 1745.33 228.60 1745.82 235.47 C 1755.28 237.57 1765.27 238.13 1774.75 235.77 C 1779.27 230.25 1784.49 225.12 1787.58 218.59 C 1790.25 213.38 1790.83 207.30 1789.47 201.63 C 1783.75 197.21 1776.05 195.52 1768.99 197.05 C 1761.24 198.63 1754.29 203.18 1749.27 209.23 Z" />
<path fill="#2c358f" opacity="1.00" d=" M 987.07 767.88 C 1000.52 763.19 1015.03 763.67 1029.05 764.41 C 1038.54 765.21 1048.08 765.60 1057.55 766.64 C 1138.60 781.04 1213.93 815.62 1292.17 839.84 C 1327.55 849.41 1363.04 858.85 1399.14 865.35 C 1445.87 873.80 1494.28 876.98 1541.13 867.66 C 1550.46 865.99 1559.49 862.84 1568.95 861.91 C 1589.90 859.48 1611.77 862.57 1631.94 855.12 C 1655.07 846.45 1680.28 846.28 1703.64 838.48 C 1711.86 835.48 1720.33 833.29 1728.62 830.48 C 1749.78 823.40 1770.53 815.19 1791.45 807.44 C 1809.06 800.62 1827.20 795.33 1844.93 788.87 C 1868.53 780.59 1892.28 772.28 1917.00 768.05 C 1936.99 764.65 1957.73 764.05 1977.59 768.62 C 1983.95 770.66 1990.17 766.90 1996.34 765.63 C 2003.50 770.29 2010.23 775.58 2017.26 780.42 C 2020.11 779.57 2022.50 777.40 2025.37 776.42 C 2032.47 773.28 2041.10 773.83 2047.44 778.46 C 2041.09 785.30 2031.36 785.47 2022.92 787.54 C 2016.65 788.83 2012.20 793.65 2007.17 797.18 C 1991.82 808.10 1974.02 814.97 1956.00 820.08 C 1930.03 827.49 1903.20 832.06 1877.96 841.89 C 1862.20 845.32 1846.84 850.44 1832.09 856.94 C 1813.70 864.84 1796.14 874.49 1778.08 883.09 C 1769.99 887.32 1761.32 890.23 1753.07 894.10 C 1706.42 915.09 1664.10 944.16 1622.00 972.91 C 1616.53 976.82 1610.68 980.22 1605.53 984.55 C 1561.88 1022.67 1515.85 1057.95 1468.82 1091.76 C 1449.60 1106.62 1426.89 1116.45 1408.76 1132.79 C 1400.94 1139.80 1394.10 1148.13 1389.72 1157.72 C 1387.67 1165.53 1389.77 1173.81 1393.23 1180.92 C 1396.59 1188.26 1401.54 1194.83 1404.42 1202.39 C 1405.52 1213.89 1405.05 1225.52 1404.38 1237.05 C 1404.41 1240.03 1402.12 1242.20 1400.55 1244.50 C 1379.63 1272.82 1352.06 1295.48 1322.82 1314.76 C 1315.02 1319.75 1307.38 1325.06 1298.99 1329.05 C 1256.44 1351.13 1221.26 1384.41 1180.79 1409.74 C 1174.69 1413.74 1168.15 1417.01 1162.18 1421.21 C 1106.14 1458.92 1047.36 1492.98 995.52 1536.58 C 915.25 1596.69 838.78 1662.91 750.58 1711.52 C 738.43 1717.45 724.48 1715.81 711.46 1714.84 C 712.65 1698.58 721.11 1684.13 729.93 1670.86 C 739.48 1656.25 750.58 1642.06 755.21 1624.94 C 757.55 1616.49 757.76 1607.53 755.97 1598.95 C 737.51 1594.60 718.10 1597.70 700.64 1604.54 C 679.50 1612.63 660.14 1624.66 639.14 1633.08 C 636.53 1634.10 633.85 1635.04 631.55 1636.69 C 603.84 1656.57 572.00 1671.18 548.33 1696.30 C 527.89 1716.70 506.04 1735.69 483.01 1753.11 C 437.78 1781.68 399.67 1819.59 359.62 1854.68 C 299.83 1902.08 242.87 1953.01 188.55 2006.57 C 177.25 2018.27 164.95 2029.07 154.90 2041.93 C 134.39 2066.58 111.15 2089.96 82.22 2104.57 C 65.07 2107.55 48.71 2094.65 43.29 2078.92 C 40.86 2070.30 37.46 2061.96 36.02 2053.09 C 31.09 2025.87 35.92 1998.28 37.56 1970.99 C 38.35 1962.04 37.72 1953.05 38.20 1944.09 C 39.91 1903.39 40.14 1862.60 37.84 1821.92 C 34.62 1801.98 28.64 1781.88 31.71 1761.51 C 33.22 1752.19 36.97 1743.01 43.45 1736.03 C 68.94 1725.79 92.07 1710.49 113.41 1693.35 C 141.04 1671.15 166.21 1646.12 193.24 1623.22 C 215.87 1601.87 237.97 1579.97 259.93 1557.93 C 313.71 1504.40 366.22 1449.57 421.13 1397.18 C 425.71 1392.71 429.64 1387.63 434.03 1382.98 C 471.89 1341.25 515.41 1305.10 560.32 1271.23 C 603.04 1232.73 645.13 1193.49 685.55 1152.56 C 688.62 1149.23 691.05 1145.39 693.86 1141.84 C 716.50 1112.04 742.15 1084.16 759.95 1050.98 C 763.84 1043.24 768.06 1035.54 770.50 1027.19 C 775.32 1001.43 787.75 978.10 798.38 954.41 C 804.18 942.01 808.22 928.84 814.63 916.71 C 831.25 884.37 856.80 857.40 885.44 835.35 C 896.83 826.48 908.80 818.33 921.61 811.63 C 938.07 802.57 955.41 793.92 968.08 779.64 C 973.33 774.25 979.97 770.30 987.07 767.88 M 971.98 902.99 C 957.82 908.60 946.80 920.27 939.44 933.35 C 934.64 941.40 936.84 952.25 943.19 958.83 C 950.24 966.71 963.00 969.94 972.34 964.30 C 986.45 952.47 998.29 937.44 1004.64 920.03 C 1002.33 914.41 999.97 908.81 997.74 903.17 C 997.23 902.13 996.99 900.61 995.60 900.54 C 987.69 899.24 979.43 900.02 971.98 902.99 M 831.79 1098.79 C 820.47 1106.09 817.78 1122.26 822.84 1134.11 C 840.42 1133.98 855.45 1115.34 850.65 1098.16 C 844.82 1095.28 837.41 1095.35 831.79 1098.79 Z" />
<path fill="#2c358f" opacity="1.00" d=" M 2264.72 1787.64 C 2272.78 1775.58 2281.52 1763.32 2294.27 1755.82 C 2298.35 1757.32 2302.20 1759.71 2304.68 1763.38 C 2310.73 1772.76 2309.54 1784.45 2311.02 1795.05 C 2312.69 1804.75 2314.69 1814.40 2316.42 1824.10 C 2324.25 1866.67 2332.69 1909.65 2350.42 1949.41 C 2361.35 1988.11 2385.68 2021.87 2393.48 2061.60 C 2396.15 2063.46 2398.89 2065.24 2401.67 2066.99 C 2401.84 2067.42 2402.19 2068.30 2402.37 2068.73 C 2401.55 2075.60 2395.72 2079.84 2391.89 2085.03 C 2388.93 2088.76 2388.94 2093.78 2386.80 2097.90 C 2376.61 2120.14 2354.16 2133.84 2344.27 2156.25 C 2341.94 2162.96 2337.92 2169.03 2336.49 2176.06 C 2332.52 2193.83 2336.92 2212.17 2333.93 2230.04 C 2333.26 2234.59 2330.02 2238.14 2327.83 2242.04 C 2290.87 2300.35 2233.22 2341.81 2195.75 2399.73 C 2193.47 2403.70 2189.99 2407.28 2189.59 2412.04 C 2188.21 2423.30 2186.47 2435.08 2190.07 2446.11 C 2192.18 2453.13 2197.72 2458.26 2202.83 2463.20 C 2217.82 2475.72 2239.29 2475.38 2254.62 2487.35 C 2257.00 2489.41 2260.10 2491.41 2260.46 2494.87 C 2264.99 2518.27 2259.55 2541.90 2255.35 2564.91 C 2254.06 2574.21 2250.69 2583.02 2247.97 2591.97 C 2235.06 2632.25 2218.78 2672.16 2193.16 2706.16 C 2189.47 2711.94 2186.53 2718.17 2182.92 2724.01 C 2153.45 2773.93 2114.23 2816.94 2077.50 2861.47 C 2066.05 2875.10 2055.39 2889.38 2043.83 2902.92 C 1995.86 2959.92 1941.79 3013.07 1877.42 3051.34 C 1861.82 3060.87 1845.17 3068.44 1828.97 3076.84 C 1799.66 3091.12 1766.36 3095.30 1737.83 3111.41 C 1713.18 3104.04 1695.34 3083.96 1672.06 3073.83 C 1652.77 3064.29 1633.06 3055.63 1613.62 3046.44 C 1591.98 3037.06 1567.90 3038.78 1545.07 3035.09 C 1535.22 3032.84 1525.07 3033.32 1515.06 3032.62 C 1473.73 3030.62 1431.70 3029.59 1391.15 3039.20 C 1382.45 3041.61 1373.96 3044.72 1365.31 3047.28 C 1324.05 3060.15 1282.20 3071.50 1242.27 3088.25 C 1238.58 3089.60 1234.61 3089.87 1230.81 3090.79 C 1204.06 3096.70 1179.20 3109.61 1151.87 3113.17 C 1128.27 3116.58 1105.96 3126.17 1082.22 3128.75 C 1180.02 3016.09 1261.22 2890.51 1353.33 2773.38 C 1415.27 2687.99 1474.62 2600.47 1543.28 2520.22 C 1553.21 2505.43 1563.90 2491.13 1575.78 2477.83 C 1601.42 2448.83 1630.37 2423.03 1657.58 2395.56 C 1663.68 2390.63 1670.42 2386.53 1676.50 2381.55 C 1706.09 2358.39 1731.42 2330.40 1760.50 2306.64 C 1793.56 2276.38 1833.33 2254.59 1866.27 2224.19 C 1879.00 2211.83 1893.17 2201.10 1906.96 2189.97 C 1923.93 2176.37 1941.01 2162.85 1956.85 2147.92 C 1980.39 2124.67 2013.70 2114.55 2036.66 2090.58 C 2048.57 2077.12 2061.96 2064.89 2076.82 2054.74 C 2082.11 2051.19 2086.75 2046.80 2091.50 2042.58 C 2137.78 2000.14 2169.72 1942.61 2182.23 1881.14 C 2182.91 1878.30 2182.81 1875.10 2184.72 1872.74 C 2198.18 1854.96 2216.20 1841.51 2231.71 1825.67 C 2235.82 1821.78 2239.06 1817.04 2243.47 1813.46 C 2252.13 1806.30 2258.43 1796.83 2264.72 1787.64 M 2061.99 2606.92 C 2052.87 2609.46 2045.22 2615.25 2037.34 2620.24 C 2035.17 2621.71 2032.44 2622.76 2031.31 2625.33 C 2025.74 2635.21 2027.84 2646.96 2027.10 2657.78 C 2039.67 2657.76 2052.33 2657.91 2064.75 2655.62 C 2069.47 2650.32 2074.59 2645.39 2079.17 2639.98 C 2081.14 2628.98 2079.21 2617.78 2077.96 2606.81 C 2072.74 2605.32 2067.18 2605.44 2061.99 2606.92 Z" />
<path fill="#2c358f" opacity="1.00" d=" M 1157.43 1973.39 C 1173.89 1957.04 1201.85 1954.55 1221.27 1967.03 C 1204.78 1993.79 1181.91 2016.72 1154.95 2032.93 C 1147.07 2032.92 1138.99 2030.98 1131.03 2030.20 C 1127.72 2024.85 1126.99 2018.05 1129.40 2012.21 C 1133.10 2003.05 1140.35 1996.08 1146.30 1988.40 C 1150.25 1983.57 1152.83 1977.70 1157.43 1973.39 Z" />
<path fill="#2c358f" opacity="1.00" d=" M 271.79 2011.79 C 277.77 2007.01 285.35 2003.82 293.09 2004.24 C 298.37 2004.46 303.36 2007.00 307.01 2010.78 C 306.93 2017.66 307.12 2024.76 305.41 2031.46 C 291.89 2050.63 273.87 2066.11 255.03 2079.86 C 251.24 2082.80 247.02 2085.19 243.53 2088.50 C 231.26 2100.20 218.39 2112.26 202.17 2118.14 C 191.83 2122.03 180.23 2121.87 169.88 2118.14 C 167.36 2109.76 165.28 2100.34 168.88 2091.96 C 170.63 2087.59 174.75 2085.07 178.27 2082.28 C 208.63 2057.72 240.72 2035.42 271.79 2011.79 Z" />
<path fill="#2c358f" opacity="1.00" d=" M 951.39 2173.50 C 962.67 2168.91 975.17 2169.00 987.10 2170.19 C 989.89 2170.26 991.55 2172.89 993.48 2174.57 C 996.79 2178.20 1000.76 2181.27 1003.67 2185.25 C 1004.97 2189.68 1004.85 2194.40 1004.66 2198.99 C 1003.45 2214.61 995.96 2228.81 987.86 2241.91 C 981.27 2252.12 974.99 2262.64 966.81 2271.71 C 955.84 2284.14 943.05 2294.81 929.91 2304.86 C 911.31 2319.50 891.01 2332.38 875.18 2350.19 C 845.65 2380.44 813.68 2408.16 781.32 2435.30 C 766.35 2448.32 750.14 2460.00 736.45 2474.43 C 725.60 2485.30 714.38 2495.87 702.02 2505.02 C 698.23 2507.94 693.99 2510.24 690.35 2513.36 C 660.36 2540.99 631.12 2569.42 602.22 2598.18 C 568.83 2633.56 529.56 2662.79 496.40 2698.39 C 491.30 2703.64 486.90 2709.55 481.44 2714.46 C 473.58 2722.24 465.80 2730.11 457.95 2737.91 C 434.92 2761.59 410.61 2785.24 380.41 2799.57 C 370.61 2795.56 362.56 2788.21 356.18 2779.90 C 344.54 2764.52 337.68 2746.21 326.50 2730.55 C 324.36 2725.63 326.16 2720.01 325.91 2714.83 C 326.39 2710.77 327.50 2706.81 329.11 2703.08 C 335.82 2687.81 348.53 2676.54 358.63 2663.61 C 404.82 2613.41 459.13 2571.49 505.46 2521.43 C 534.17 2495.54 559.21 2465.70 589.66 2441.74 C 596.51 2436.16 604.23 2431.72 610.58 2425.55 C 631.18 2407.24 649.84 2386.34 673.46 2371.76 C 673.38 2370.46 673.30 2369.19 673.23 2367.95 C 692.39 2354.12 711.20 2339.65 727.85 2322.81 C 760.47 2293.73 802.90 2277.97 833.96 2246.89 C 861.56 2226.61 888.58 2205.20 918.82 2188.88 C 929.27 2182.90 940.61 2178.78 951.39 2173.50 Z" />
</g>
<g id="#eb6a57ff">
<path fill="#eb6a57" opacity="1.00" d=" M 2043.22 164.48 C 2043.41 184.66 2047.01 204.84 2044.85 225.01 C 2043.33 234.19 2042.46 243.48 2040.33 252.56 C 2033.31 284.71 2018.74 314.43 2007.42 345.16 C 2005.62 350.66 2002.31 355.46 1999.41 360.41 C 1993.25 370.34 1986.35 379.85 1978.34 388.37 C 1973.66 393.09 1970.18 398.79 1966.14 404.02 C 1925.36 459.44 1883.23 514.78 1830.71 559.73 C 1818.69 569.82 1806.55 579.91 1793.14 588.13 C 1768.74 604.79 1752.87 630.65 1730.09 649.15 C 1726.06 652.52 1721.60 655.31 1717.32 658.33 C 1686.33 682.53 1652.43 703.35 1615.75 717.74 C 1609.31 720.47 1602.47 722.18 1596.08 724.99 C 1567.02 742.71 1534.07 752.60 1504.48 769.31 C 1497.52 770.45 1490.68 772.27 1484.09 774.85 C 1475.18 778.21 1464.96 781.01 1455.83 776.77 C 1452.68 777.94 1449.55 779.17 1446.37 780.20 C 1444.27 766.56 1439.00 753.33 1439.73 739.34 C 1441.19 733.25 1445.91 728.53 1450.43 724.47 C 1465.40 712.18 1485.27 709.50 1502.37 701.35 C 1508.54 698.77 1513.61 694.10 1520.08 692.16 C 1571.51 671.44 1614.83 636.05 1660.55 605.55 C 1676.12 596.11 1687.43 581.35 1697.50 566.49 C 1701.02 561.77 1701.83 555.75 1702.70 550.08 C 1705.15 530.44 1700.49 510.67 1702.97 491.03 C 1704.07 482.25 1707.10 473.55 1712.66 466.57 C 1716.76 461.34 1722.24 457.49 1727.24 453.19 C 1772.10 415.85 1817.95 379.70 1864.66 344.71 C 1870.30 340.38 1876.30 336.44 1881.19 331.22 C 1925.85 288.00 1963.74 236.89 1987.31 179.12 C 2003.78 170.42 2023.27 168.73 2041.32 172.82 C 2041.88 170.02 2042.53 167.25 2043.22 164.48 Z" />
<path fill="#eb6a57" opacity="1.00" d=" M 1749.27 209.23 C 1754.29 203.18 1761.24 198.63 1768.99 197.05 C 1776.05 195.52 1783.75 197.21 1789.47 201.63 C 1790.83 207.30 1790.25 213.38 1787.58 218.59 C 1784.49 225.12 1779.27 230.25 1774.75 235.77 C 1765.27 238.13 1755.28 237.57 1745.82 235.47 C 1745.33 228.60 1745.34 221.68 1746.10 214.84 C 1746.22 212.58 1747.96 210.92 1749.27 209.23 Z" />
<path fill="#eb6a57" opacity="1.00" d=" M 871.37 755.40 C 891.01 755.17 910.82 754.10 930.36 756.86 C 938.56 757.95 946.52 760.28 954.46 762.51 C 961.32 765.95 963.46 774.02 968.08 779.64 C 955.41 793.92 938.07 802.57 921.61 811.63 C 908.80 818.33 896.83 826.48 885.44 835.35 C 856.80 857.40 831.25 884.37 814.63 916.71 C 808.22 928.84 804.18 942.01 798.38 954.41 C 787.75 978.10 775.32 1001.43 770.50 1027.19 C 768.06 1035.54 763.84 1043.24 759.95 1050.98 C 742.15 1084.16 716.50 1112.04 693.86 1141.84 C 691.05 1145.39 688.62 1149.23 685.55 1152.56 C 645.13 1193.49 603.04 1232.73 560.32 1271.23 C 515.41 1305.10 471.89 1341.25 434.03 1382.98 C 429.64 1387.63 425.71 1392.71 421.13 1397.18 C 366.22 1449.57 313.71 1504.40 259.93 1557.93 C 237.97 1579.97 215.87 1601.87 193.24 1623.22 C 166.21 1646.12 141.04 1671.15 113.41 1693.35 C 92.07 1710.49 68.94 1725.79 43.45 1736.03 C 40.40 1733.89 37.30 1731.84 34.17 1729.82 C 32.63 1728.75 30.84 1727.79 30.11 1725.97 C 14.99 1693.36 1.53 1658.95 0.00 1622.62 L 0.00 1612.39 C 0.69 1604.65 0.93 1596.73 3.20 1589.26 C 14.90 1564.56 18.91 1536.47 34.48 1513.58 C 35.96 1510.53 39.84 1510.45 41.80 1507.87 C 63.43 1493.10 88.87 1484.16 108.80 1466.77 C 181.83 1396.13 256.34 1327.00 328.56 1255.52 C 352.96 1229.43 380.72 1205.82 412.98 1190.03 C 420.18 1186.22 428.23 1184.61 435.83 1181.80 C 505.13 1158.17 568.11 1117.45 620.08 1066.06 C 644.21 1041.34 664.61 1013.29 683.49 984.44 C 693.08 969.98 702.17 955.18 711.71 940.69 C 734.77 909.29 751.86 873.47 779.03 845.17 C 787.57 836.23 797.24 828.42 807.65 821.77 C 814.43 816.52 822.53 813.48 829.66 808.80 C 833.71 806.18 837.11 802.49 839.07 798.06 C 840.84 791.31 842.20 784.47 843.75 777.68 C 845.85 776.83 847.99 776.00 849.96 774.84 C 858.30 769.75 862.86 760.23 871.37 755.40 Z" />
<path fill="#eb6a57" opacity="1.00" d=" M 2047.44 778.46 C 2109.81 770.95 2173.98 784.37 2229.29 813.78 C 2232.56 815.70 2236.53 814.99 2240.15 815.67 C 2255.91 817.84 2269.84 826.06 2283.75 833.25 C 2293.21 838.36 2303.12 842.72 2313.54 845.49 C 2330.35 857.89 2349.14 867.42 2365.48 880.49 C 2377.40 889.94 2387.49 902.34 2391.90 917.09 C 2393.80 921.51 2391.75 926.18 2390.75 930.56 C 2363.98 970.38 2329.39 1004.60 2290.60 1032.71 C 2257.99 1056.44 2222.58 1076.18 2185.87 1092.81 C 2173.72 1098.20 2161.61 1103.75 2148.95 1107.86 C 2112.92 1120.74 2077.30 1137.61 2049.39 1164.36 C 2045.84 1168.14 2041.45 1171.36 2039.08 1176.06 C 2028.79 1199.57 2029.22 1226.26 2018.47 1249.61 C 2005.01 1277.07 1990.20 1304.15 1970.84 1327.96 C 1963.43 1337.11 1955.12 1345.49 1946.50 1353.51 C 1912.30 1387.64 1872.25 1415.07 1836.56 1447.53 C 1825.43 1458.16 1813.16 1467.51 1801.26 1477.25 C 1740.11 1526.56 1676.97 1573.69 1620.40 1628.36 C 1610.86 1638.20 1600.12 1646.76 1589.76 1655.71 C 1538.93 1698.84 1486.48 1740.16 1437.90 1785.89 C 1415.81 1807.42 1391.21 1826.78 1373.03 1851.98 C 1369.07 1857.47 1365.53 1863.25 1361.71 1868.84 C 1350.40 1887.41 1347.60 1911.28 1355.21 1931.75 C 1357.11 1936.23 1359.02 1940.95 1362.38 1944.57 C 1370.22 1949.63 1379.75 1951.16 1388.91 1951.79 C 1405.29 1952.92 1421.94 1949.86 1438.10 1953.74 C 1444.46 1955.29 1450.62 1958.07 1455.61 1962.37 C 1463.06 1969.20 1469.96 1977.13 1473.06 1986.95 C 1478.30 2003.09 1476.00 2020.61 1471.62 2036.68 C 1468.51 2049.15 1461.80 2060.29 1454.85 2070.96 C 1433.47 2102.37 1403.13 2125.86 1376.22 2152.19 C 1369.30 2158.64 1363.08 2165.80 1356.01 2172.09 C 1272.53 2249.83 1187.83 2326.45 1098.39 2397.34 C 1091.31 2402.50 1085.51 2409.12 1078.98 2414.93 C 1056.74 2435.10 1032.11 2452.57 1011.01 2474.01 C 1006.87 2478.56 1002.56 2482.98 997.66 2486.74 C 936.24 2537.96 878.06 2593.04 822.99 2651.02 C 812.56 2661.24 801.52 2670.82 791.02 2680.97 C 762.61 2707.96 735.12 2736.06 710.71 2766.77 C 706.78 2771.10 702.33 2774.94 698.44 2779.33 C 655.08 2825.27 627.15 2883.55 582.12 2928.07 C 567.40 2942.56 556.86 2960.77 541.49 2974.65 C 524.45 2972.77 507.04 2978.64 490.26 2973.69 C 484.96 2972.41 480.77 2968.47 475.34 2967.62 C 459.84 2963.44 448.33 2950.98 440.17 2937.74 C 430.11 2922.15 423.24 2904.30 410.25 2890.74 C 388.67 2865.95 377.65 2832.32 380.41 2799.57 C 410.61 2785.24 434.92 2761.59 457.95 2737.91 C 465.80 2730.11 473.58 2722.24 481.44 2714.46 C 486.90 2709.55 491.30 2703.64 496.40 2698.39 C 529.56 2662.79 568.83 2633.56 602.22 2598.18 C 631.12 2569.42 660.36 2540.99 690.35 2513.36 C 693.99 2510.24 698.23 2507.94 702.02 2505.02 C 714.38 2495.87 725.60 2485.30 736.45 2474.43 C 750.14 2460.00 766.35 2448.32 781.32 2435.30 C 813.68 2408.16 845.65 2380.44 875.18 2350.19 C 891.01 2332.38 911.31 2319.50 929.91 2304.86 C 943.05 2294.81 955.84 2284.14 966.81 2271.71 C 974.99 2262.64 981.27 2252.12 987.86 2241.91 C 995.96 2228.81 1003.45 2214.61 1004.66 2198.99 C 1004.85 2194.40 1004.97 2189.68 1003.67 2185.25 C 1000.76 2181.27 996.79 2178.20 993.48 2174.57 C 991.55 2172.89 989.89 2170.26 987.10 2170.19 C 975.17 2169.00 962.67 2168.91 951.39 2173.50 C 940.61 2178.78 929.27 2182.90 918.82 2188.88 C 888.58 2205.20 861.56 2226.61 833.96 2246.89 C 802.90 2277.97 760.47 2293.73 727.85 2322.81 C 711.20 2339.65 692.39 2354.12 673.23 2367.95 C 673.30 2369.19 673.38 2370.46 673.46 2371.76 C 649.84 2386.34 631.18 2407.24 610.58 2425.55 C 604.23 2431.72 596.51 2436.16 589.66 2441.74 C 559.21 2465.70 534.17 2495.54 505.46 2521.43 C 459.13 2571.49 404.82 2613.41 358.63 2663.61 C 348.53 2676.54 335.82 2687.81 329.11 2703.08 C 327.50 2706.81 326.39 2710.77 325.91 2714.83 C 325.58 2717.39 325.47 2719.98 325.37 2722.60 C 307.90 2716.32 289.95 2710.78 273.99 2701.07 C 265.41 2695.90 257.55 2689.42 251.35 2681.52 C 245.33 2673.97 241.49 2665.02 237.41 2656.36 C 212.51 2600.73 205.94 2539.15 183.73 2482.58 C 173.62 2420.51 144.61 2363.79 129.59 2303.03 C 116.74 2251.08 93.14 2202.09 84.88 2148.96 C 82.43 2134.29 81.99 2119.40 82.22 2104.57 C 111.15 2089.96 134.39 2066.58 154.90 2041.93 C 164.95 2029.07 177.25 2018.27 188.55 2006.57 C 242.87 1953.01 299.83 1902.08 359.62 1854.68 C 399.67 1819.59 437.78 1781.68 483.01 1753.11 C 506.04 1735.69 527.89 1716.70 548.33 1696.30 C 572.00 1671.18 603.84 1656.57 631.55 1636.69 C 633.85 1635.04 636.53 1634.10 639.14 1633.08 C 660.14 1624.66 679.50 1612.63 700.64 1604.54 C 718.10 1597.70 737.51 1594.60 755.97 1598.95 C 757.76 1607.53 757.55 1616.49 755.21 1624.94 C 750.58 1642.06 739.48 1656.25 729.93 1670.86 C 721.11 1684.13 712.65 1698.58 711.46 1714.84 C 724.48 1715.81 738.43 1717.45 750.58 1711.52 C 838.78 1662.91 915.25 1596.69 995.52 1536.58 C 1047.36 1492.98 1106.14 1458.92 1162.18 1421.21 C 1168.15 1417.01 1174.69 1413.74 1180.79 1409.74 C 1221.26 1384.41 1256.44 1351.13 1298.99 1329.05 C 1307.38 1325.06 1315.02 1319.75 1322.82 1314.76 C 1352.06 1295.48 1379.63 1272.82 1400.55 1244.50 C 1402.12 1242.20 1404.41 1240.03 1404.38 1237.05 C 1405.05 1225.52 1405.52 1213.89 1404.42 1202.39 C 1401.54 1194.83 1396.59 1188.26 1393.23 1180.92 C 1389.77 1173.81 1387.67 1165.53 1389.72 1157.72 C 1394.10 1148.13 1400.94 1139.80 1408.76 1132.79 C 1426.89 1116.45 1449.60 1106.62 1468.82 1091.76 C 1515.85 1057.95 1561.88 1022.67 1605.53 984.55 C 1610.68 980.22 1616.53 976.82 1622.00 972.91 C 1664.10 944.16 1706.42 915.09 1753.07 894.10 C 1761.32 890.23 1769.99 887.32 1778.08 883.09 C 1796.14 874.49 1813.70 864.84 1832.09 856.94 C 1846.84 850.44 1862.20 845.32 1877.96 841.89 C 1903.20 832.06 1930.03 827.49 1956.00 820.08 C 1974.02 814.97 1991.82 808.10 2007.17 797.18 C 2012.20 793.65 2016.65 788.83 2022.92 787.54 C 2031.36 785.47 2041.09 785.30 2047.44 778.46 M 1157.43 1973.39 C 1152.83 1977.70 1150.25 1983.57 1146.30 1988.40 C 1140.35 1996.08 1133.10 2003.05 1129.40 2012.21 C 1126.99 2018.05 1127.72 2024.85 1131.03 2030.20 C 1138.99 2030.98 1147.07 2032.92 1154.95 2032.93 C 1181.91 2016.72 1204.78 1993.79 1221.27 1967.03 C 1201.85 1954.55 1173.89 1957.04 1157.43 1973.39 M 271.79 2011.79 C 240.72 2035.42 208.63 2057.72 178.27 2082.28 C 174.75 2085.07 170.63 2087.59 168.88 2091.96 C 165.28 2100.34 167.36 2109.76 169.88 2118.14 C 180.23 2121.87 191.83 2122.03 202.17 2118.14 C 218.39 2112.26 231.26 2100.20 243.53 2088.50 C 247.02 2085.19 251.24 2082.80 255.03 2079.86 C 273.87 2066.11 291.89 2050.63 305.41 2031.46 C 307.12 2024.76 306.93 2017.66 307.01 2010.78 C 303.36 2007.00 298.37 2004.46 293.09 2004.24 C 285.35 2003.82 277.77 2007.01 271.79 2011.79 Z" />
<path fill="#eb6a57" opacity="1.00" d=" M 971.98 902.99 C 979.43 900.02 987.69 899.24 995.60 900.54 C 996.99 900.61 997.23 902.13 997.74 903.17 C 999.97 908.81 1002.33 914.41 1004.64 920.03 C 998.29 937.44 986.45 952.47 972.34 964.30 C 963.00 969.94 950.24 966.71 943.19 958.83 C 936.84 952.25 934.64 941.40 939.44 933.35 C 946.80 920.27 957.82 908.60 971.98 902.99 Z" />
<path fill="#eb6a57" opacity="1.00" d=" M 831.79 1098.79 C 837.41 1095.35 844.82 1095.28 850.65 1098.16 C 855.45 1115.34 840.42 1133.98 822.84 1134.11 C 817.78 1122.26 820.47 1106.09 831.79 1098.79 Z" />
<path fill="#eb6a57" opacity="1.00" d=" M 2284.79 1509.77 C 2290.70 1501.77 2299.04 1495.08 2308.86 1492.71 L 2310.48 1492.39 C 2310.25 1503.46 2312.83 1514.29 2315.46 1524.97 C 2318.25 1536.66 2320.51 1549.13 2317.16 1560.94 C 2313.40 1575.61 2313.38 1591.24 2307.17 1605.25 C 2305.35 1608.87 2305.70 1613.04 2305.35 1616.98 C 2303.91 1640.02 2304.75 1663.34 2300.14 1686.08 C 2299.18 1689.23 2300.88 1692.24 2301.69 1695.23 C 2305.27 1707.12 2308.10 1719.67 2306.42 1732.13 C 2305.27 1741.10 2301.13 1749.83 2294.27 1755.82 C 2281.52 1763.32 2272.78 1775.58 2264.72 1787.64 C 2258.43 1796.83 2252.13 1806.30 2243.47 1813.46 C 2239.06 1817.04 2235.82 1821.78 2231.71 1825.67 C 2216.20 1841.51 2198.18 1854.96 2184.72 1872.74 C 2182.81 1875.10 2182.91 1878.30 2182.23 1881.14 C 2169.72 1942.61 2137.78 2000.14 2091.50 2042.58 C 2086.75 2046.80 2082.11 2051.19 2076.82 2054.74 C 2061.96 2064.89 2048.57 2077.12 2036.66 2090.58 C 2013.70 2114.55 1980.39 2124.67 1956.85 2147.92 C 1941.01 2162.85 1923.93 2176.37 1906.96 2189.97 C 1893.17 2201.10 1879.00 2211.83 1866.27 2224.19 C 1833.33 2254.59 1793.56 2276.38 1760.50 2306.64 C 1731.42 2330.40 1706.09 2358.39 1676.50 2381.55 C 1670.42 2386.53 1663.68 2390.63 1657.58 2395.56 C 1630.37 2423.03 1601.42 2448.83 1575.78 2477.83 C 1563.90 2491.13 1553.21 2505.43 1543.28 2520.22 C 1474.62 2600.47 1415.27 2687.99 1353.33 2773.38 C 1261.22 2890.51 1180.02 3016.09 1082.22 3128.75 C 1069.72 3139.40 1058.42 3151.46 1045.18 3161.25 C 1036.10 3168.01 1026.01 3173.73 1014.93 3176.40 C 1008.47 3177.98 1001.41 3179.40 995.08 3176.60 C 985.49 3172.64 979.50 3163.61 974.33 3155.08 C 1022.47 3101.99 1070.87 3049.16 1119.99 2996.98 C 1133.80 2982.92 1145.49 2966.99 1157.34 2951.30 C 1168.36 2936.38 1179.19 2921.31 1190.81 2906.84 C 1200.71 2894.16 1212.15 2882.80 1222.23 2870.28 C 1260.17 2823.95 1289.38 2771.44 1323.15 2722.17 C 1326.90 2716.94 1331.03 2712.00 1334.91 2706.87 C 1370.38 2660.76 1401.15 2611.30 1435.28 2564.23 C 1445.53 2549.58 1457.01 2535.85 1467.28 2521.22 C 1487.27 2493.86 1510.97 2469.49 1531.46 2442.52 C 1541.49 2428.45 1553.85 2416.26 1565.77 2403.81 C 1605.14 2363.77 1648.43 2327.84 1687.89 2287.88 C 1737.19 2244.95 1778.70 2193.58 1830.80 2153.79 C 1851.50 2134.18 1873.11 2115.32 1891.28 2093.23 C 1902.65 2079.19 1912.53 2063.70 1918.63 2046.62 C 1921.04 2039.00 1921.15 2030.92 1921.84 2023.03 C 1923.38 1985.15 1913.42 1947.11 1920.57 1909.41 C 1921.44 1902.92 1924.74 1897.20 1927.66 1891.48 C 1943.17 1863.19 1968.09 1842.05 1989.18 1818.16 C 1995.41 1811.06 2001.28 1803.62 2007.98 1796.94 C 2033.60 1770.62 2064.43 1750.20 2091.16 1725.10 C 2114.06 1703.12 2144.61 1690.66 2165.81 1666.72 C 2196.88 1632.00 2227.14 1596.57 2256.67 1560.54 C 2268.34 1544.94 2273.16 1525.40 2284.79 1509.77 Z" />
<path fill="#eb6a57" opacity="1.00" d=" M 2028.17 1539.33 C 2032.80 1537.45 2039.18 1538.88 2041.31 1543.78 C 2044.39 1550.19 2042.62 1557.79 2039.88 1564.02 C 2037.20 1570.15 2032.04 1575.93 2025.06 1576.77 C 2021.21 1577.25 2019.08 1573.37 2017.33 1570.63 C 2011.32 1559.64 2017.10 1544.62 2028.17 1539.33 Z" />
<path fill="#eb6a57" opacity="1.00" d=" M 1668.49 1788.58 C 1674.69 1787.72 1681.74 1787.07 1687.26 1790.71 C 1692.33 1793.77 1694.46 1800.48 1692.86 1806.07 C 1686.39 1832.24 1667.44 1853.82 1644.88 1867.78 C 1640.88 1870.72 1635.95 1871.77 1631.16 1872.60 C 1624.90 1873.22 1618.12 1873.70 1612.41 1870.58 C 1609.89 1869.17 1606.97 1867.37 1606.65 1864.22 C 1604.08 1850.63 1609.83 1836.89 1618.36 1826.52 C 1628.88 1813.55 1642.56 1803.72 1656.11 1794.18 C 1659.81 1791.50 1664.02 1789.56 1668.49 1788.58 Z" />
<path fill="#eb6a57" opacity="1.00" d=" M 2403.68 2067.08 C 2411.21 2065.63 2418.86 2068.46 2424.60 2073.32 C 2429.96 2077.34 2433.43 2083.22 2438.42 2087.64 C 2473.43 2120.80 2501.36 2160.49 2535.22 2194.75 C 2562.51 2218.58 2590.47 2242.27 2622.73 2259.18 C 2632.16 2264.33 2642.35 2267.92 2651.74 2273.18 C 2668.26 2282.20 2683.51 2293.56 2700.85 2301.09 C 2706.64 2303.52 2711.07 2308.27 2714.87 2313.14 C 2720.93 2321.46 2725.73 2330.71 2732.84 2338.24 C 2734.99 2342.99 2735.34 2348.34 2736.00 2353.48 L 2736.00 2360.73 C 2734.64 2382.32 2725.27 2402.14 2719.77 2422.79 C 2718.07 2430.51 2714.40 2437.57 2711.98 2445.06 C 2703.77 2468.11 2697.44 2491.77 2689.54 2514.92 C 2684.28 2530.53 2677.84 2545.71 2670.50 2560.46 C 2654.11 2594.85 2637.71 2629.75 2613.65 2659.59 C 2562.02 2744.60 2510.67 2829.83 2455.69 2912.74 C 2426.17 2948.27 2399.35 2987.04 2362.12 3015.16 C 2335.56 3033.57 2316.49 3061.58 2287.11 3076.09 C 2260.62 3088.94 2239.72 3110.78 2213.10 3123.39 C 2172.02 3141.38 2131.53 3161.00 2088.90 3175.16 C 2084.28 3176.74 2079.35 3177.08 2074.76 3178.74 C 2061.16 3183.37 2049.30 3191.91 2035.77 3196.71 C 2032.14 3198.11 2028.18 3197.79 2024.39 3198.19 C 2011.49 3199.23 1998.61 3200.45 1985.69 3201.00 L 1974.49 3201.00 C 1962.10 3199.97 1949.68 3198.77 1937.24 3199.36 C 1910.98 3200.02 1883.75 3202.68 1858.54 3193.51 C 1823.33 3184.51 1792.70 3164.04 1758.90 3151.38 C 1743.95 3144.81 1734.44 3127.57 1737.83 3111.41 C 1766.36 3095.30 1799.66 3091.12 1828.97 3076.84 C 1845.17 3068.44 1861.82 3060.87 1877.42 3051.34 C 1941.79 3013.07 1995.86 2959.92 2043.83 2902.92 C 2055.39 2889.38 2066.05 2875.10 2077.50 2861.47 C 2114.23 2816.94 2153.45 2773.93 2182.92 2724.01 C 2186.53 2718.17 2189.47 2711.94 2193.16 2706.16 C 2218.78 2672.16 2235.06 2632.25 2247.97 2591.97 C 2250.69 2583.02 2254.06 2574.21 2255.35 2564.91 C 2259.55 2541.90 2264.99 2518.27 2260.46 2494.87 C 2260.10 2491.41 2257.00 2489.41 2254.62 2487.35 C 2239.29 2475.38 2217.82 2475.72 2202.83 2463.20 C 2197.72 2458.26 2192.18 2453.13 2190.07 2446.11 C 2186.47 2435.08 2188.21 2423.30 2189.59 2412.04 C 2189.99 2407.28 2193.47 2403.70 2195.75 2399.73 C 2233.22 2341.81 2290.87 2300.35 2327.83 2242.04 C 2330.02 2238.14 2333.26 2234.59 2333.93 2230.04 C 2336.92 2212.17 2332.52 2193.83 2336.49 2176.06 C 2337.92 2169.03 2341.94 2162.96 2344.27 2156.25 C 2354.16 2133.84 2376.61 2120.14 2386.80 2097.90 C 2388.94 2093.78 2388.93 2088.76 2391.89 2085.03 C 2395.72 2079.84 2401.55 2075.60 2402.37 2068.73 C 2402.78 2068.16 2403.22 2067.61 2403.68 2067.08 Z" />
<path fill="#eb6a57" opacity="1.00" d=" M 2061.99 2606.92 C 2067.18 2605.44 2072.74 2605.32 2077.96 2606.81 C 2079.21 2617.78 2081.14 2628.98 2079.17 2639.98 C 2074.59 2645.39 2069.47 2650.32 2064.75 2655.62 C 2052.33 2657.91 2039.67 2657.76 2027.10 2657.78 C 2027.84 2646.96 2025.74 2635.21 2031.31 2625.33 C 2032.44 2622.76 2035.17 2621.71 2037.34 2620.24 C 2045.22 2615.25 2052.87 2609.46 2061.99 2606.92 Z" />
</g>
<g id="#fad450ff">
<path fill="#fad450" opacity="1.00" d=" M 698.03 781.41 C 725.31 772.33 755.39 784.33 782.15 772.58 C 801.35 769.05 819.76 779.12 838.96 778.02 C 839.26 784.69 839.44 791.38 839.07 798.06 C 837.11 802.49 833.71 806.18 829.66 808.80 C 822.53 813.48 814.43 816.52 807.65 821.77 C 797.24 828.42 787.57 836.23 779.03 845.17 C 751.86 873.47 734.77 909.29 711.71 940.69 C 702.17 955.18 693.08 969.98 683.49 984.44 C 664.61 1013.29 644.21 1041.34 620.08 1066.06 C 568.11 1117.45 505.13 1158.17 435.83 1181.80 C 428.23 1184.61 420.18 1186.22 412.98 1190.03 C 380.72 1205.82 352.96 1229.43 328.56 1255.52 C 256.34 1327.00 181.83 1396.13 108.80 1466.77 C 88.87 1484.16 63.43 1493.10 41.80 1507.87 C 41.15 1508.43 40.47 1508.97 39.77 1509.50 C 38.52 1509.97 37.26 1510.39 35.98 1510.77 C 38.74 1504.90 42.76 1499.81 46.44 1494.55 C 45.94 1482.67 46.38 1470.75 47.89 1458.95 C 52.84 1419.87 67.75 1383.05 82.97 1347.03 C 86.78 1338.75 88.98 1329.86 92.42 1321.44 C 110.65 1274.39 139.46 1232.62 163.54 1188.54 C 166.38 1183.78 168.17 1178.26 172.29 1174.37 C 196.18 1148.19 210.84 1115.36 232.45 1087.50 C 273.51 1043.60 309.76 994.87 356.10 956.15 C 364.02 949.18 373.20 943.91 381.74 937.80 C 437.85 899.42 493.38 858.90 556.32 832.24 C 567.09 827.45 578.40 824.02 589.12 819.10 C 620.84 805.57 653.80 795.15 687.02 786.02 C 690.82 784.80 694.20 782.56 698.03 781.41 Z" />
<path fill="#fad450" opacity="1.00" d=" M 2414.87 921.91 C 2419.13 920.88 2423.59 921.08 2427.87 921.97 C 2451.28 950.29 2485.05 966.44 2514.00 988.09 C 2520.45 992.59 2525.86 998.54 2532.95 1002.12 C 2566.61 1021.77 2596.05 1047.51 2626.90 1071.12 C 2633.37 1076.80 2634.06 1085.98 2637.41 1093.45 C 2637.94 1097.83 2635.77 1102.14 2635.32 1106.50 C 2633.81 1113.49 2632.86 1120.61 2631.40 1127.60 C 2627.73 1133.62 2622.68 1138.71 2617.45 1143.38 C 2602.84 1156.36 2585.04 1165.36 2571.27 1179.33 C 2569.28 1181.17 2566.60 1181.92 2564.33 1183.28 C 2550.65 1190.76 2540.29 1202.82 2527.26 1211.22 C 2521.08 1214.48 2517.35 1220.67 2512.32 1225.31 C 2491.84 1245.47 2468.91 1263.93 2454.01 1288.93 C 2419.54 1331.60 2383.18 1373.35 2356.50 1421.57 C 2353.16 1428.03 2348.82 1433.90 2345.10 1440.14 C 2334.07 1457.80 2323.76 1476.02 2310.67 1492.28 C 2310.22 1492.39 2309.31 1492.60 2308.86 1492.71 C 2299.04 1495.08 2290.70 1501.77 2284.79 1509.77 C 2273.16 1525.40 2268.34 1544.94 2256.67 1560.54 C 2227.14 1596.57 2196.88 1632.00 2165.81 1666.72 C 2144.61 1690.66 2114.06 1703.12 2091.16 1725.10 C 2064.43 1750.20 2033.60 1770.62 2007.98 1796.94 C 2001.28 1803.62 1995.41 1811.06 1989.18 1818.16 C 1968.09 1842.05 1943.17 1863.19 1927.66 1891.48 C 1924.74 1897.20 1921.44 1902.92 1920.57 1909.41 C 1913.42 1947.11 1923.38 1985.15 1921.84 2023.03 C 1921.15 2030.92 1921.04 2039.00 1918.63 2046.62 C 1912.53 2063.70 1902.65 2079.19 1891.28 2093.23 C 1873.11 2115.32 1851.50 2134.18 1830.80 2153.79 C 1778.70 2193.58 1737.19 2244.95 1687.89 2287.88 C 1648.43 2327.84 1605.14 2363.77 1565.77 2403.81 C 1553.85 2416.26 1541.49 2428.45 1531.46 2442.52 C 1510.97 2469.49 1487.27 2493.86 1467.28 2521.22 C 1457.01 2535.85 1445.53 2549.58 1435.28 2564.23 C 1401.15 2611.30 1370.38 2660.76 1334.91 2706.87 C 1331.03 2712.00 1326.90 2716.94 1323.15 2722.17 C 1289.38 2771.44 1260.17 2823.95 1222.23 2870.28 C 1212.15 2882.80 1200.71 2894.16 1190.81 2906.84 C 1179.19 2921.31 1168.36 2936.38 1157.34 2951.30 C 1145.49 2966.99 1133.80 2982.92 1119.99 2996.98 C 1070.87 3049.16 1022.47 3101.99 974.33 3155.08 C 945.59 3153.71 916.81 3155.76 888.08 3154.11 C 868.03 3153.01 847.85 3149.94 829.10 3142.52 C 826.52 3141.40 823.68 3142.06 820.99 3142.00 C 805.81 3142.14 790.76 3138.85 776.55 3133.65 C 770.62 3131.70 765.15 3128.59 759.20 3126.75 C 727.75 3119.53 699.58 3103.06 669.16 3092.84 C 665.90 3091.71 663.22 3089.49 660.36 3087.68 C 643.58 3076.69 626.11 3066.79 609.56 3055.46 C 593.59 3044.47 578.33 3031.98 566.70 3016.34 C 562.63 3010.18 557.68 3004.71 552.65 2999.35 C 546.37 2992.68 540.37 2984.32 541.49 2974.65 C 556.86 2960.77 567.40 2942.56 582.12 2928.07 C 627.15 2883.55 655.08 2825.27 698.44 2779.33 C 702.33 2774.94 706.78 2771.10 710.71 2766.77 C 735.12 2736.06 762.61 2707.96 791.02 2680.97 C 801.52 2670.82 812.56 2661.24 822.99 2651.02 C 878.06 2593.04 936.24 2537.96 997.66 2486.74 C 1002.56 2482.98 1006.87 2478.56 1011.01 2474.01 C 1032.11 2452.57 1056.74 2435.10 1078.98 2414.93 C 1085.51 2409.12 1091.31 2402.50 1098.39 2397.34 C 1187.83 2326.45 1272.53 2249.83 1356.01 2172.09 C 1363.08 2165.80 1369.30 2158.64 1376.22 2152.19 C 1403.13 2125.86 1433.47 2102.37 1454.85 2070.96 C 1461.80 2060.29 1468.51 2049.15 1471.62 2036.68 C 1476.00 2020.61 1478.30 2003.09 1473.06 1986.95 C 1469.96 1977.13 1463.06 1969.20 1455.61 1962.37 C 1450.62 1958.07 1444.46 1955.29 1438.10 1953.74 C 1421.94 1949.86 1405.29 1952.92 1388.91 1951.79 C 1379.75 1951.16 1370.22 1949.63 1362.38 1944.57 C 1359.02 1940.95 1357.11 1936.23 1355.21 1931.75 C 1347.60 1911.28 1350.40 1887.41 1361.71 1868.84 C 1365.53 1863.25 1369.07 1857.47 1373.03 1851.98 C 1391.21 1826.78 1415.81 1807.42 1437.90 1785.89 C 1486.48 1740.16 1538.93 1698.84 1589.76 1655.71 C 1600.12 1646.76 1610.86 1638.20 1620.40 1628.36 C 1676.97 1573.69 1740.11 1526.56 1801.26 1477.25 C 1813.16 1467.51 1825.43 1458.16 1836.56 1447.53 C 1872.25 1415.07 1912.30 1387.64 1946.50 1353.51 C 1955.12 1345.49 1963.43 1337.11 1970.84 1327.96 C 1990.20 1304.15 2005.01 1277.07 2018.47 1249.61 C 2029.22 1226.26 2028.79 1199.57 2039.08 1176.06 C 2041.45 1171.36 2045.84 1168.14 2049.39 1164.36 C 2077.30 1137.61 2112.92 1120.74 2148.95 1107.86 C 2161.61 1103.75 2173.72 1098.20 2185.87 1092.81 C 2222.58 1076.18 2257.99 1056.44 2290.60 1032.71 C 2329.39 1004.60 2363.98 970.38 2390.75 930.56 C 2399.14 928.69 2406.51 923.89 2414.87 921.91 M 2028.17 1539.33 C 2017.10 1544.62 2011.32 1559.64 2017.33 1570.63 C 2019.08 1573.37 2021.21 1577.25 2025.06 1576.77 C 2032.04 1575.93 2037.20 1570.15 2039.88 1564.02 C 2042.62 1557.79 2044.39 1550.19 2041.31 1543.78 C 2039.18 1538.88 2032.80 1537.45 2028.17 1539.33 M 1668.49 1788.58 C 1664.02 1789.56 1659.81 1791.50 1656.11 1794.18 C 1642.56 1803.72 1628.88 1813.55 1618.36 1826.52 C 1609.83 1836.89 1604.08 1850.63 1606.65 1864.22 C 1606.97 1867.37 1609.89 1869.17 1612.41 1870.58 C 1618.12 1873.70 1624.90 1873.22 1631.16 1872.60 C 1635.95 1871.77 1640.88 1870.72 1644.88 1867.78 C 1667.44 1853.82 1686.39 1832.24 1692.86 1806.07 C 1694.46 1800.48 1692.33 1793.77 1687.26 1790.71 C 1681.74 1787.07 1674.69 1787.72 1668.49 1788.58 Z" />
</g>
</svg>
