<?xml version="1.0" encoding="UTF-8"?>
<!DOCTYPE svg PUBLIC "-//W3C//DTD SVG 1.1//EN" "http://www.w3.org/Graphics/SVG/1.1/DTD/svg11.dtd">
<!-- Creator: CorelDRAW -->
<svg xmlns="http://www.w3.org/2000/svg" xml:space="preserve" width="210mm" height="297mm" version="1.1" style="shape-rendering:geometricPrecision; text-rendering:geometricPrecision; image-rendering:optimizeQuality; fill-rule:evenodd; clip-rule:evenodd"
viewBox="0 0 21000 29700"
 xmlns:xlink="http://www.w3.org/1999/xlink"
 xmlns:xodm="http://www.corel.com/coreldraw/odm/2003">
 <defs>
  <style type="text/css">
   <![CDATA[
    .fil0 {fill:#006398}
    .fil1 {fill:white}
   ]]>
  </style>
 </defs>
 <g id="Capa_x0020_1">
  <metadata id="CorelCorpID_0Corel-Layer"/>
  <polygon class="fil0" points="7108.37,7434.09 15608.37,7434.09 15608.37,12434.09 7108.37,12434.09 "/>
  <g id="_105828218701952">
   <path class="fil1" d="M12483.38 10035.02c288.12,0 433.6,-43.68 433.6,146.8 0,238.8 -35.03,202.29 -433.49,202.29l-0.11 -349.09zm3 -534.85c331.69,0 382.75,-38.91 382.66,171.31 -0.08,205.52 -101.94,165.85 -385.76,165.84l3.1 -337.15zm-268.02 1085.45l575.69 3.08c208.68,0 385.32,-81.37 385.32,-291.29 0,-161.3 25.86,-326.42 -187.15,-380.92 134.4,-113.28 141.29,-52.2 141.29,-331.93 0,-201.89 -117.49,-274.57 -311.35,-287.05 -150.77,-9.71 -456.66,-13.43 -603.8,0.36l0 1287.75z"/>
   <path class="fil1" d="M8488.03 9411.17c18,41.67 437.93,437.35 461.64,473.08 56.07,84.52 -60.98,164.63 -96.54,200.25 -106.01,106.21 -210.52,203.21 -318.25,307.93 -40.02,38.9 -47.71,30.37 -47.36,106.71 0.48,102.78 -6.07,409.27 4.62,468.51l890.5 -873.91c38.5,-35.63 100.45,-75.55 104.3,-153.71 4.75,-96.25 -130.92,-180.75 -224.25,-282.39 -153.77,-167.47 -351.63,-341.17 -515.71,-505.39 -43.86,-43.9 -80.91,-85.57 -122.77,-127.7 -27.89,-28.05 -108.47,-107.67 -135.61,-124.01l-0.57 510.63z"/>
   <path class="fil1" d="M8310.59 10967.65c9.95,-80.06 4.16,-402.37 4.08,-506.48 -0.04,-43.82 -318.49,-329.79 -369.91,-381.48 -31.49,-31.63 -108.04,-87.44 -106.15,-148.17 1.73,-55.67 168.39,-196.88 234.64,-270.46 40.71,-45.22 81.59,-82.64 124.71,-125.77 65.79,-65.79 116.71,-94.04 116.71,-143.39l-0.44 -491.36c-44.21,26.52 -532.11,528.06 -640.1,621.71 -97,84.11 -153.72,163.82 -254.54,255.57 -191.2,173.99 -105.92,221.59 123.27,434 173.22,160.56 341.57,353.04 513.66,507.49 48,43.08 81.27,79.65 127.19,123.35 38.59,36.73 97.95,85.71 126.88,124.99z"/>
   <path class="fil1" d="M11491.64 9510.51l186.68 596.82 -374.67 -4.83 187.99 -591.99zm-621.32 1074.51l277.09 4 86.94 -266.52 500.66 -0.85c33,27.78 83.67,214.15 96.27,265.72l277.71 1.24 -435.15 -1291.37c-439.21,-22.43 -363.28,-26.77 -539.96,505.51 -60.18,181.31 -226.64,640.8 -263.56,782.27z"/>
   <path class="fil1" d="M13858.94 9510.96l187.13 596.09 -376.62 -1.19 189.49 -594.9zm-621.23 1077.2l259.56 0.6c27.24,-6.52 44.9,-89.06 57.76,-127.66 14.84,-44.54 33.61,-94.34 44.12,-139.45l517.64 0 83.68 266.56 275.31 -0.39 -326.7 -971.16c-19.51,-57.09 -37.2,-109.58 -56.11,-165.45 -14.46,-42.69 -27.65,-133.52 -65.88,-155.64 -185.01,0 -331.4,-25.59 -395.86,124.39l-393.52 1168.2z"/>
   <path class="fil1" d="M9911.46 9623.1l0 587.61c0,276.08 204.75,375.7 474.32,375.7l371.19 -3.41c-0.16,-234.58 -53.44,-220.65 -274.87,-220.45 -372.65,0.34 -305.95,-65.21 -305.95,-691.29 0,-139.27 70.68,-190.36 209.63,-190.36l380.5 0c16.02,-263.91 -64.83,-223.86 -399.77,-223.86 -252.93,0 -455.05,107.47 -455.05,366.06z"/>
   <path class="fil1" d="M14566.54 10588.7c132.76,0 755.5,16.15 833.41,-6.33 0,-39.68 5.73,-157.52 0.46,-187.99 -7.32,-42.34 -59.86,-24.88 -169.19,-24.88 -133.2,0.01 -266.41,0 -399.62,0l0 -1088.53c-342.68,-72.71 -265.06,234.09 -265.06,515.52 0,264.07 0,528.14 0,792.21z"/>
  </g>
 </g>
</svg>
