<?xml version="1.0" encoding="UTF-8"?>
<!DOCTYPE svg PUBLIC "-//W3C//DTD SVG 1.1//EN" "http://www.w3.org/Graphics/SVG/1.1/DTD/svg11.dtd">
<!-- Creator: CorelDRAW -->
<svg xmlns="http://www.w3.org/2000/svg" xml:space="preserve" width="85mm" height="50mm" version="1.1" style="shape-rendering:geometricPrecision; text-rendering:geometricPrecision; image-rendering:optimizeQuality; fill-rule:evenodd; clip-rule:evenodd"
viewBox="0 0 8500 5000"
 xmlns:xlink="http://www.w3.org/1999/xlink"
 xmlns:xodm="http://www.corel.com/coreldraw/odm/2003">
 <defs>
  <style type="text/css">
   <![CDATA[
    .fil0 {fill:#006398}
    .fil1 {fill:white}
   ]]>
  </style>
 </defs>
 <g id="Capa_x0020_1">
  <metadata id="CorelCorpID_0Corel-Layer"/>
  <polygon class="fil0" points="332.52,176 8360.22,176 8360.22,4898.18 332.52,4898.18 "/>
  <g id="_105828204039808">
   <path class="fil1" d="M5408.87 2632.41c272.11,0 409.5,-41.25 409.5,138.64 0,225.54 -33.07,191.06 -409.39,191.06l-0.11 -329.7zm2.83 -505.13c313.27,0 361.48,-36.75 361.4,161.79 -0.08,194.1 -96.27,156.63 -364.33,156.63l2.93 -318.42zm-253.12 1025.13l543.7 2.92c197.09,0 363.91,-76.85 363.91,-275.11 0,-152.34 24.42,-308.28 -176.75,-359.75 126.92,-106.99 133.44,-49.3 133.44,-313.48 0,-190.68 -110.96,-259.32 -294.05,-271.11 -142.4,-9.17 -431.29,-12.68 -570.25,0.34l0 1216.19z"/>
   <path class="fil1" d="M1635.52 2043.22c17,39.36 413.6,413.05 435.98,446.8 52.96,79.82 -57.58,155.48 -91.17,189.12 -100.12,100.31 -198.82,191.92 -300.56,290.82 -37.8,36.74 -45.07,28.69 -44.74,100.78 0.46,97.07 -5.72,386.53 4.37,442.48l841.02 -825.35c36.36,-33.65 94.87,-71.36 98.51,-145.17 4.48,-90.9 -123.65,-170.71 -211.79,-266.7 -145.23,-158.16 -332.1,-322.21 -487.06,-477.31 -41.42,-41.46 -76.41,-80.82 -115.95,-120.6 -26.34,-26.5 -102.44,-101.69 -128.08,-117.13l-0.53 482.26z"/>
   <path class="fil1" d="M1467.93 3513.22c9.41,-75.61 3.94,-380.01 3.86,-478.34 -0.04,-41.38 -300.79,-311.46 -349.36,-360.28 -29.74,-29.88 -102.03,-82.58 -100.25,-139.94 1.63,-52.58 159.03,-185.94 221.61,-255.43 38.45,-42.71 77.05,-78.05 117.77,-118.78 62.14,-62.14 110.23,-88.81 110.23,-135.42l-0.42 -464.07c-41.75,25.05 -502.54,498.72 -604.53,587.17 -91.61,79.44 -145.17,154.72 -240.4,241.37 -180.57,164.33 -100.03,209.28 116.42,409.89 163.6,151.63 322.6,333.42 485.12,479.29 45.33,40.69 76.76,75.22 120.13,116.5 36.44,34.69 92.5,80.95 119.82,118.04z"/>
   <path class="fil1" d="M4472.24 2137.04l176.3 563.67 -353.85 -4.57 177.55 -559.1zm-586.8 1014.82l261.7 3.77 82.1 -251.71 472.85 -0.81c31.16,26.24 79.02,202.26 90.92,250.96l262.28 1.18 -410.98 -1219.62c-414.81,-21.19 -343.09,-25.29 -509.95,477.41 -56.84,171.24 -214.05,605.2 -248.92,738.82z"/>
   <path class="fil1" d="M6708 2137.47l176.73 562.97 -355.69 -1.13 178.96 -561.84zm-586.71 1017.35l245.13 0.56c25.73,-6.16 42.41,-84.11 54.56,-120.56 14.01,-42.07 31.74,-89.1 41.66,-131.71l488.88 0 79.03 251.76 260.02 -0.37 -308.55 -917.2c-18.43,-53.92 -35.13,-103.49 -53,-156.26 -13.65,-40.32 -26.11,-126.1 -62.22,-146.99 -174.73,0 -312.98,-24.17 -373.86,117.47l-371.65 1103.3z"/>
   <path class="fil1" d="M2979.85 2243.38l0 554.96c0,260.74 193.38,354.82 447.97,354.82l350.56 -3.21c-0.15,-221.55 -50.46,-208.4 -259.59,-208.21 -351.94,0.33 -288.95,-61.59 -288.95,-652.88 0,-131.53 66.75,-179.78 197.98,-179.78l359.36 0c15.13,-249.25 -61.23,-211.42 -377.56,-211.42 -238.87,0 -429.77,101.49 -429.77,345.72z"/>
   <path class="fil1" d="M7376.28 3155.33c125.39,0 713.52,15.25 787.11,-5.98 0,-37.48 5.4,-148.77 0.43,-177.55 -6.91,-39.98 -56.53,-23.49 -159.79,-23.49 -125.8,0.01 -251.61,0 -377.41,0l0 -1028.05c-323.64,-68.67 -250.34,221.08 -250.34,486.87 0,249.41 0,498.8 0,748.2z"/>
  </g>
 </g>
</svg>
